<svg width="108" height="19" viewBox="0 0 108 19" fill="none" xmlns="http://www.w3.org/2000/svg">
<g clip-path="url(#clip0_20_1584)">
<path d="M49.1432 14.7627H21.5166V16.9745H49.1432V14.7627Z" fill="#F22425"/>
<path d="M0.293945 8.09585H5.09619V10.0667H3.88472V15.7834H1.50542V10.0667H0.293945V8.09585ZM5.3994 8.09585H7.76778V10.8072H10.4963V8.09585H12.8756V15.7834H10.4963V12.7454H7.76778V15.7834H5.3994V8.09585ZM13.7246 8.09585H19.0836V9.9143H16.1039V11.0467H19.0508V12.8325H16.1039V13.9976H19.0836V15.7834H13.7246V8.09585ZM26.2419 14.0956C26.2564 14.0956 26.2709 14.0956 26.2856 14.0956C26.3001 14.0884 26.3146 14.0847 26.3292 14.0847C26.6348 14.0702 26.9039 13.9904 27.1369 13.8452C27.3697 13.7 27.5189 13.5149 27.5844 13.2899C27.6717 12.985 27.7153 12.524 27.7153 11.907C27.7153 11.6311 27.7116 11.4097 27.7044 11.2427C27.7044 11.0685 27.6935 10.927 27.6717 10.8181C27.657 10.7019 27.6316 10.6076 27.5953 10.535C27.5661 10.4624 27.5261 10.3825 27.4752 10.2954C27.3443 10.1067 27.1732 9.96148 26.9623 9.85985C26.7511 9.75096 26.5184 9.69652 26.2638 9.69652C25.8998 9.69652 25.5871 9.78363 25.3251 9.95785C25.0632 10.1321 24.8957 10.3607 24.8231 10.6439C24.7576 10.927 24.7247 11.2972 24.7247 11.7545C24.7247 12.0231 24.7284 12.2518 24.7358 12.4405C24.7429 12.622 24.7576 12.7817 24.7794 12.9196C24.8013 13.0503 24.8267 13.1628 24.8558 13.2572C24.8922 13.3516 24.9394 13.4387 24.9977 13.5185C25.1214 13.7 25.2924 13.8416 25.5107 13.9432C25.729 14.0448 25.9727 14.0956 26.2419 14.0956ZM23.306 8.9343C23.6916 8.57134 24.1246 8.30274 24.6048 8.12852C25.0922 7.9543 25.6526 7.86719 26.2856 7.86719C26.8895 7.86719 27.4387 7.96519 27.9336 8.16119C28.4284 8.34992 28.8504 8.61852 29.1997 8.96697C29.5561 9.31541 29.829 9.73645 30.0182 10.2301C30.2147 10.7237 30.3129 11.2681 30.3129 11.8634C30.3129 13.5476 29.7089 14.7199 28.5012 15.3805C28.1591 15.5693 27.7953 15.7072 27.4098 15.7943C27.0313 15.8887 26.6384 15.9359 26.231 15.9359C25.8163 15.9359 25.4196 15.885 25.0414 15.7834C24.663 15.689 24.3137 15.5547 23.9936 15.3805C23.6807 15.199 23.4005 14.9813 23.1532 14.7272C22.9131 14.4731 22.7202 14.19 22.5748 13.8779C22.2982 13.2681 22.16 12.5857 22.16 11.8307C22.16 11.1847 22.2473 10.6366 22.422 10.1865C22.6038 9.72919 22.8984 9.31179 23.306 8.9343ZM30.8402 8.09585H33.2086L35.8498 12.1465V8.09585H38.1746V15.7834H35.8498L33.1977 11.7001V15.7834H30.8402V8.09585ZM38.9628 8.09585H41.3311V13.7907H43.1429V15.7834H38.9628V8.09585ZM42.1884 8.09585H44.7316L45.8667 10.3172L47.0454 8.09585H49.4793L47.0454 12.4514V15.7834H44.6443V12.4514L42.1884 8.09585ZM54.7082 9.95785V13.9214H54.7409L54.8719 13.9323H55.0575C55.7413 13.9323 56.2725 13.7581 56.6509 13.4096C57.0365 13.0612 57.2294 12.5712 57.2294 11.9396C57.2294 11.3153 57.0438 10.829 56.6728 10.4805C56.3088 10.1321 55.7959 9.95785 55.1337 9.95785H54.7082ZM52.3289 8.09585H56.0288C56.5162 8.09585 56.9456 8.15392 57.3167 8.27008C57.6878 8.37897 58.037 8.56045 58.3645 8.81452C58.8155 9.16297 59.1648 9.61303 59.4122 10.1647C59.6595 10.7092 59.7833 11.3008 59.7833 11.9396C59.7833 12.2953 59.7432 12.6401 59.6632 12.9741C59.5831 13.3007 59.4668 13.6093 59.314 13.8996C59.1612 14.19 58.9757 14.455 58.7574 14.6945C58.5462 14.9268 58.3061 15.1228 58.037 15.2825C57.8624 15.3914 57.7023 15.4785 57.5568 15.5439C57.4112 15.6092 57.2548 15.66 57.0875 15.6963C56.92 15.7326 56.7273 15.758 56.509 15.7725C56.2908 15.7798 56.0179 15.7834 55.6905 15.7834H52.3289V8.09585ZM60.4404 8.09585H65.7992V9.9143H62.8197V11.0467H65.7665V12.8325H62.8197V13.9976H65.7992V15.7834H60.4404V8.09585ZM70.4233 7.88896C71.5365 7.88896 72.4242 8.14303 73.0863 8.65119C73.7484 9.15208 74.1413 9.86712 74.2651 10.7963H71.7112C71.5147 10.0849 71.049 9.72919 70.3141 9.72919C69.8339 9.72919 69.4664 9.86712 69.2118 10.143C68.957 10.4116 68.8261 10.7963 68.8189 11.2972V12.0485C68.8189 12.3244 68.8225 12.5567 68.8298 12.7454C68.8443 12.9269 68.8697 13.083 68.9062 13.2136C68.9425 13.337 68.9898 13.4423 69.0481 13.5294C69.1062 13.6093 69.1862 13.6891 69.288 13.769C69.5791 14.0013 69.9321 14.1174 70.3469 14.1174C70.718 14.1174 71.0198 14.0303 71.2528 13.8561C71.4855 13.6819 71.6383 13.4241 71.7112 13.083H74.2978C74.2395 13.3225 74.1849 13.5294 74.1341 13.7036C74.0831 13.8779 74.025 14.0339 73.9595 14.1719C73.894 14.3025 73.8212 14.4259 73.7412 14.5421C73.661 14.651 73.5628 14.7671 73.4465 14.8905C73.1191 15.2462 72.697 15.5185 72.1805 15.7072C71.6637 15.8959 71.0926 15.9903 70.4669 15.9903C69.8192 15.9903 69.2336 15.8959 68.7097 15.7072C68.193 15.5112 67.7493 15.2353 67.3782 14.8796C67.0143 14.5239 66.7305 14.0956 66.5269 13.5947C66.3305 13.0866 66.2322 12.5204 66.2322 11.8961C66.2322 11.279 66.3267 10.7237 66.516 10.2301C66.7124 9.73645 66.9925 9.31541 67.3564 8.96697C67.7201 8.61852 68.1603 8.35356 68.677 8.17208C69.1936 7.98334 69.7756 7.88896 70.4233 7.88896ZM74.7647 8.09585H77.144V15.7834H74.7647V8.09585ZM78.4527 15.0212C78.3436 14.9123 78.2489 14.807 78.1689 14.7054C78.0961 14.6038 78.0306 14.4985 77.9725 14.3896C77.9142 14.2735 77.8596 14.1465 77.8088 14.0085C77.7651 13.8706 77.7215 13.7073 77.6778 13.5185H80.2972C80.3845 14.0339 80.6465 14.2916 81.083 14.2916C81.294 14.2916 81.4686 14.2336 81.6069 14.1174C81.745 13.994 81.8143 13.8379 81.8143 13.6492C81.8143 13.4677 81.7488 13.3261 81.6178 13.2245C81.4869 13.1229 81.2467 13.0285 80.8975 12.9414C80.861 12.9341 80.8102 12.9233 80.7447 12.9087C80.6792 12.887 80.5955 12.8616 80.4937 12.8325C80.3772 12.7962 80.2716 12.7672 80.1772 12.7454C80.0898 12.7236 80.017 12.7019 79.9589 12.6801C79.7259 12.6147 79.5041 12.5313 79.2931 12.4296C79.082 12.3207 78.8855 12.201 78.7037 12.0703C78.4345 11.867 78.2271 11.6202 78.0816 11.3299C77.936 11.0395 77.8633 10.731 77.8633 10.4043C77.8633 10.0413 77.9397 9.70741 78.0925 9.40252C78.2525 9.09763 78.4745 8.8363 78.7583 8.61852C79.0421 8.40074 79.3767 8.23379 79.7624 8.11763C80.1553 7.99423 80.5881 7.93252 81.0612 7.93252C82.822 7.93252 83.8334 8.71652 84.0954 10.2845H81.6287C81.6141 10.0595 81.5486 9.88526 81.4323 9.76185C81.3158 9.63119 81.1594 9.56585 80.963 9.56585C80.781 9.56585 80.6356 9.6203 80.5264 9.72919C80.4173 9.83081 80.3627 9.96874 80.3627 10.143C80.3627 10.3535 80.4572 10.5205 80.6465 10.6439C80.8356 10.7673 81.1739 10.8761 81.6615 10.9705C81.9161 11.0213 82.1344 11.0685 82.3163 11.1121C82.4981 11.1556 82.6618 11.2028 82.8075 11.2536C82.9529 11.3045 83.0875 11.3625 83.2113 11.4279C83.3349 11.4859 83.4623 11.5585 83.5933 11.6456C83.8771 11.8344 84.0989 12.0848 84.2591 12.397C84.419 12.7091 84.4992 13.0503 84.4992 13.4205C84.4992 13.8053 84.419 14.1537 84.2591 14.4659C84.0989 14.778 83.8733 15.0466 83.5824 15.2716C83.2913 15.4894 82.9347 15.66 82.5128 15.7834C82.0981 15.8996 81.6359 15.9576 81.1267 15.9576C79.9625 15.9576 79.0711 15.6455 78.4527 15.0212ZM85.0715 8.09585H87.4508V15.7834H85.0715V8.09585ZM92.1427 14.0956C92.1572 14.0956 92.1719 14.0956 92.1863 14.0956C92.2008 14.0884 92.2155 14.0847 92.23 14.0847C92.5356 14.0702 92.8049 13.9904 93.0377 13.8452C93.2704 13.7 93.4197 13.5149 93.4851 13.2899C93.5725 12.985 93.6161 12.524 93.6161 11.907C93.6161 11.6311 93.6125 11.4097 93.6052 11.2427C93.6052 11.0685 93.5943 10.927 93.5725 10.8181C93.558 10.7019 93.5324 10.6076 93.496 10.535C93.4669 10.4624 93.427 10.3825 93.376 10.2954C93.245 10.1067 93.074 9.96148 92.863 9.85985C92.6521 9.75096 92.4191 9.69652 92.1645 9.69652C91.8008 9.69652 91.4878 9.78363 91.2259 9.95785C90.964 10.1321 90.7967 10.3607 90.7238 10.6439C90.6584 10.927 90.6256 11.2972 90.6256 11.7545C90.6256 12.0231 90.6292 12.2518 90.6365 12.4405C90.6439 12.622 90.6584 12.7817 90.6802 12.9196C90.702 13.0503 90.7274 13.1628 90.7566 13.2572C90.7929 13.3516 90.8403 13.4387 90.8985 13.5185C91.0221 13.7 91.1932 13.8416 91.4114 13.9432C91.6297 14.0448 91.8734 14.0956 92.1427 14.0956ZM89.2068 8.9343C89.5924 8.57134 90.0253 8.30274 90.5056 8.12852C90.9931 7.9543 91.5533 7.86719 92.1863 7.86719C92.7902 7.86719 93.3397 7.96519 93.8344 8.16119C94.3291 8.34992 94.7512 8.61852 95.1004 8.96697C95.457 9.31541 95.7299 9.73645 95.919 10.2301C96.1155 10.7237 96.2137 11.2681 96.2137 11.8634C96.2137 13.5476 95.6098 14.7199 94.4019 15.3805C94.06 15.5693 93.6961 15.7072 93.3105 15.7943C92.9321 15.8887 92.5392 15.9359 92.1318 15.9359C91.717 15.9359 91.3205 15.885 90.9421 15.7834C90.5637 15.689 90.2145 15.5547 89.8944 15.3805C89.5814 15.199 89.3014 14.9813 89.054 14.7272C88.8139 14.4731 88.621 14.19 88.4755 13.8779C88.1991 13.2681 88.0608 12.5857 88.0608 11.8307C88.0608 11.1847 88.1481 10.6366 88.3227 10.1865C88.5047 9.72919 88.7994 9.31179 89.2068 8.9343ZM96.7412 8.09585H99.1095L101.751 12.1465V8.09585H104.075V15.7834H101.751L99.0986 11.7001V15.7834H96.7412V8.09585ZM104.733 14.8361C104.733 14.6909 104.758 14.5566 104.809 14.4332C104.867 14.3025 104.944 14.19 105.038 14.0956C105.14 13.994 105.253 13.9178 105.376 13.867C105.507 13.8089 105.646 13.7799 105.791 13.7799C105.937 13.7799 106.075 13.8089 106.206 13.867C106.337 13.9178 106.45 13.994 106.544 14.0956C106.646 14.19 106.723 14.3025 106.774 14.4332C106.832 14.5566 106.861 14.6909 106.861 14.8361C106.861 15.1337 106.755 15.3841 106.544 15.5874C106.341 15.7907 106.09 15.8923 105.791 15.8923C105.646 15.8923 105.507 15.8633 105.376 15.8052C105.253 15.7544 105.14 15.6818 105.038 15.5874C104.944 15.493 104.867 15.3805 104.809 15.2499C104.758 15.1192 104.733 14.9813 104.733 14.8361Z" fill="white"/>
<path d="M93.021 5.7504C93.3404 5.50136 93.6903 5.30222 94.0643 5.16122L94.5053 3.12279L95.8181 3.40549L94.4659 1.18799L92.3174 2.65162L93.6302 2.93432L93.021 5.7504Z" fill="url(#paint0_linear_20_1584)"/>
<path d="M92.175 6.73374C91.8135 6.24719 91.2877 5.92058 90.6985 5.78009L90.4169 7.08164L89.0254 4.96572L91.1678 3.61084L90.8863 4.91239C91.624 5.07126 92.2904 5.47361 92.7823 6.04265C92.5486 6.24661 92.3455 6.47986 92.175 6.73374Z" fill="white"/>
<path d="M95.7178 8.22322L95.9994 6.92168C95.7786 6.87411 93.9966 6.56301 93.4185 8.27296L92.5352 8.08269C93.0002 6.55277 94.6082 5.65945 96.1871 6.05399L96.4687 4.75244L97.8603 6.86834L95.7178 8.22322Z" fill="white"/>
</g>
<defs>
<linearGradient id="paint0_linear_20_1584" x1="94.4659" y1="1.18799" x2="93.4629" y2="5.8456" gradientUnits="userSpaceOnUse">
<stop stop-color="#F22425"/>
<stop offset="1" stop-color="#8C1515"/>
</linearGradient>
<clipPath id="clip0_20_1584">
<rect width="106.925" height="17.6944" fill="white" transform="translate(0.200195 0.811035)"/>
</clipPath>
</defs>
</svg>
